<?xml version="1.0" encoding="UTF-8" standalone="no"?>
<!-- Created with Inkscape (http://www.inkscape.org/) -->

<svg
   width="32mm"
   height="31.999935mm"
   viewBox="0 0 32 31.999935"
   version="1.1"
   id="svg1"
   xml:space="preserve"
   inkscape:version="1.3.2 (091e20e, 2023-11-25)"
   sodipodi:docname="drawing.svg"
   xmlns:inkscape="http://www.inkscape.org/namespaces/inkscape"
   xmlns:sodipodi="http://sodipodi.sourceforge.net/DTD/sodipodi-0.dtd"
   xmlns="http://www.w3.org/2000/svg"
   xmlns:svg="http://www.w3.org/2000/svg"><sodipodi:namedview
     id="namedview1"
     pagecolor="#ffffff"
     bordercolor="#000000"
     borderopacity="0.25"
     inkscape:showpageshadow="2"
     inkscape:pageopacity="0.0"
     inkscape:pagecheckerboard="0"
     inkscape:deskcolor="#d1d1d1"
     inkscape:document-units="mm"
     inkscape:zoom="4.7572176"
     inkscape:cx="53.812968"
     inkscape:cy="43.51283"
     inkscape:window-width="1800"
     inkscape:window-height="1097"
     inkscape:window-x="2560"
     inkscape:window-y="185"
     inkscape:window-maximized="1"
     inkscape:current-layer="layer1" /><defs
     id="defs1" /><g
     inkscape:label="Layer 1"
     inkscape:groupmode="layer"
     id="layer1"
     transform="translate(-35.304598,-167.80909)"><path
       style="fill:#004874;stroke-width:0"
       d="m 42.886183,199.77059 c -0.875221,-0.1104 -1.980411,-0.44887 -2.802592,-0.85828 -1.1242,-0.55982 -2.398362,-1.63697 -3.115439,-2.63372 -2.147392,-2.98492 -2.221311,-6.85388 -0.189838,-9.93633 0.365384,-0.55442 0.825654,-1.0426 3.831482,-4.06384 l 3.416212,-3.43374 0.286983,0.0368 c 0.386778,0.0497 1.665054,0.41818 2.417469,0.69686 3.126708,1.15807 5.964622,3.48755 7.790167,6.39449 0.757034,1.20547 1.516584,2.97856 1.870898,4.36741 l 0.12809,0.5021 -3.555946,3.54709 c -3.141231,3.1334 -3.629375,3.59554 -4.18554,3.96257 -1.022039,0.67447 -2.052015,1.09816 -3.223584,1.32608 -0.631181,0.12279 -2.040698,0.17162 -2.668362,0.0924 z m 15.286413,-11.71203 c -0.623682,-1.70573 -1.7648,-3.73072 -2.892653,-5.13321 -2.169129,-2.69731 -5.088287,-4.71486 -8.431963,-5.82769 l -0.80285,-0.2672 3.558637,-3.55146 c 2.419658,-2.41478 3.708852,-3.65596 4.027973,-3.87794 1.024051,-0.71236 2.130085,-1.1963 3.319346,-1.45238 0.539882,-0.11624 0.845945,-0.14066 1.749474,-0.13956 1.549023,0.001 2.399341,0.19662 3.785975,0.86709 0.922956,0.44626 1.659665,0.98456 2.399348,1.75316 1.197814,1.24464 1.938365,2.6647 2.303195,4.41656 0.153693,0.738 0.154123,2.38611 7.1e-4,3.15489 -0.243157,1.21942 -0.658341,2.23322 -1.335414,3.26082 -0.366263,0.55588 -0.825385,1.04205 -3.897348,4.127 l -3.482061,3.49688 z m -2.790838,-13.99439 c 0.09864,-0.051 0.357725,-0.24871 0.575738,-0.43924 0.218013,-0.19054 0.62167,-0.45788 0.897013,-0.5941 0.709545,-0.35102 1.203065,-0.45022 2.153952,-0.43297 0.432968,0.008 0.857617,-0.008 0.943662,-0.0348 0.631718,-0.19796 0.977329,-0.96134 0.717261,-1.58429 -0.124788,-0.2989 -0.25359,-0.43714 -0.560816,-0.60192 -0.228888,-0.12276 -0.344047,-0.13415 -1.345428,-0.13299 -0.998372,10e-4 -1.149503,0.0164 -1.710759,0.17221 -1.344517,0.37334 -2.874501,1.34676 -3.238184,2.06022 -0.218123,0.42791 -0.109717,1.06827 0.233424,1.37883 0.333069,0.30143 0.964423,0.40034 1.334137,0.209 z"
       id="path1" /></g></svg>
