<?xml version="1.0" encoding="UTF-8" standalone="no"?>
<!DOCTYPE svg PUBLIC "-//W3C//DTD SVG 20010904//EN"
              "http://www.w3.org/TR/2001/REC-SVG-20010904/DTD/svg10.dtd">

<svg xmlns="http://www.w3.org/2000/svg"
     width="4.26667in" height="4.26667in"
     viewBox="0 0 1280 1280">
  <path id="Selection"
        fill="#004874" stroke="#004874" stroke-width="0"
        d="M 512.00,494.00
           C 516.94,496.75 520.50,496.00 526.00,496.00
             526.00,496.00 548.00,496.00 548.00,496.00
             548.00,496.00 548.00,536.00 548.00,536.00
             537.56,536.00 519.80,533.63 512.61,542.18
             506.65,549.27 507.94,558.38 508.00,567.00
             508.02,569.35 507.81,572.61 509.60,574.40
             511.52,576.32 515.46,575.99 518.00,576.00
             518.00,576.00 548.00,576.00 548.00,576.00
             548.00,576.00 548.00,611.00 548.00,611.00
             548.00,611.00 508.00,611.00 508.00,611.00
             508.00,611.00 508.00,786.00 508.00,786.00
             508.00,786.00 460.00,786.00 460.00,786.00
             460.00,786.00 460.00,652.00 460.00,652.00
             460.00,652.00 460.00,621.00 460.00,621.00
             460.00,621.00 458.40,612.60 458.40,612.60
             458.40,612.60 450.00,611.00 450.00,611.00
             450.00,611.00 439.00,611.00 439.00,611.00
             439.00,611.00 439.00,576.00 439.00,576.00
             439.00,576.00 451.00,576.00 451.00,576.00
             459.46,575.94 459.96,574.15 460.00,566.00
             460.10,545.82 459.77,530.63 473.46,514.00
             480.10,505.94 488.24,501.65 498.00,498.52
             503.92,496.62 507.56,498.09 512.00,494.00 Z
           M 50.00,698.00
           C 54.58,730.48 83.30,742.64 113.00,742.14
             133.09,741.80 157.90,734.17 158.96,710.00
             159.09,706.96 158.71,700.90 157.97,698.00
             151.86,674.11 124.74,673.20 105.00,670.85
             105.00,670.85 75.00,667.54 75.00,667.54
             54.92,663.89 30.90,653.56 19.45,635.91
             15.83,630.34 13.52,625.33 11.59,619.00
             9.46,612.06 8.09,607.41 8.00,600.00
             7.81,583.51 7.24,574.58 14.31,559.00
             25.34,534.73 50.78,519.02 76.00,513.04
             76.00,513.04 92.00,510.83 92.00,510.83
             98.90,510.06 95.75,509.45 104.00,509.65
             104.00,509.65 112.00,509.65 112.00,509.65
             112.00,509.65 120.00,510.83 120.00,510.83
             132.68,512.24 138.70,512.86 151.00,517.44
             180.54,528.43 200.98,554.09 201.00,586.00
             201.00,586.00 187.00,587.00 187.00,587.00
             178.21,587.04 172.21,585.28 165.00,591.00
             161.43,587.48 159.76,588.02 155.00,588.00
             148.22,555.73 115.49,550.09 88.00,556.90
             71.53,560.98 54.48,575.45 57.44,594.00
             62.31,624.51 100.22,622.32 123.00,625.29
             150.19,628.83 179.65,633.31 196.33,658.00
             198.35,661.00 200.76,664.63 202.05,668.00
             204.75,675.10 207.96,694.19 208.00,702.00
             208.12,726.66 203.39,747.37 183.83,764.11
             170.51,775.51 154.74,781.18 138.00,785.25
             130.59,787.06 118.26,785.79 113.00,791.00
             109.06,788.40 108.39,787.93 104.00,790.00
             97.95,786.55 93.59,787.34 87.00,786.25
             81.17,785.27 70.64,782.31 65.00,780.31
             36.53,770.18 15.99,753.89 7.36,724.00
             5.02,715.91 4.02,720.01 4.00,710.00
             4.00,710.00 4.00,700.00 4.00,700.00
             11.36,700.00 20.41,700.68 27.00,697.00
             32.72,701.21 43.19,698.06 50.00,698.00 Z
           M 858.00,510.00
           C 863.20,512.90 869.19,512.00 875.00,512.00
             875.00,512.00 906.00,512.00 906.00,512.00
             911.74,512.00 916.87,512.86 922.00,510.00
             923.21,511.12 923.43,511.61 925.11,512.28
             925.11,512.28 942.00,515.87 942.00,515.87
             952.57,518.53 956.93,521.21 966.00,527.23
             987.41,541.43 1000.96,568.46 1001.00,594.00
             1001.00,594.00 1001.00,606.00 1001.00,606.00
             1000.89,615.46 998.33,625.38 994.49,634.00
             988.87,646.61 979.35,658.31 968.00,666.11
             963.58,669.15 952.55,672.79 953.30,679.00
             953.89,683.81 964.88,700.52 968.00,706.00
             968.00,706.00 996.86,758.00 996.86,758.00
             1000.79,765.05 1009.62,778.76 1011.00,786.00
             1011.00,786.00 962.00,786.00 962.00,786.00
             962.00,786.00 953.47,784.83 953.47,784.83
             953.47,784.83 949.14,778.00 949.14,778.00
             949.14,778.00 940.74,762.00 940.74,762.00
             940.74,762.00 908.63,701.00 908.63,701.00
             908.63,701.00 899.00,684.00 899.00,684.00
             899.00,684.00 897.00,684.00 897.00,684.00
             894.39,687.47 893.15,686.97 889.00,686.85
             889.00,686.85 863.09,686.85 863.09,686.85
             860.96,686.22 858.98,684.90 857.00,684.00
             857.00,684.00 857.00,786.00 857.00,786.00
             857.00,786.00 807.00,786.00 807.00,786.00
             807.00,786.00 807.00,612.00 807.00,612.00
             807.00,589.85 803.91,551.59 815.21,533.00
             820.20,524.80 829.81,518.36 839.00,515.88
             839.00,515.88 854.89,512.41 854.89,512.41
             856.63,511.71 856.80,511.19 858.00,510.00 Z
           M 1038.00,512.00
           C 1038.00,512.00 1092.00,512.00 1092.00,512.00
             1102.39,512.02 1099.79,512.64 1108.68,527.00
             1108.68,527.00 1129.42,563.00 1129.42,563.00
             1129.42,563.00 1137.77,577.00 1137.77,577.00
             1137.77,577.00 1148.12,594.00 1148.12,594.00
             1149.12,595.45 1150.95,598.80 1152.98,598.80
             1154.96,598.80 1156.69,595.45 1157.61,594.00
             1157.61,594.00 1168.19,577.00 1168.19,577.00
             1168.19,577.00 1195.85,528.00 1195.85,528.00
             1204.02,513.77 1203.12,512.02 1213.00,512.00
             1213.00,512.00 1268.00,512.00 1268.00,512.00
             1265.04,519.11 1252.24,537.52 1247.34,545.00
             1247.34,545.00 1222.30,584.00 1222.30,584.00
             1222.30,584.00 1204.19,611.00 1204.19,611.00
             1204.19,611.00 1187.95,636.00 1187.95,636.00
             1186.31,638.55 1182.81,642.94 1183.14,646.00
             1183.39,648.28 1188.01,654.72 1189.50,657.00
             1189.50,657.00 1206.00,682.00 1206.00,682.00
             1206.00,682.00 1219.33,701.00 1219.33,701.00
             1219.33,701.00 1253.34,753.00 1253.34,753.00
             1258.33,760.64 1271.63,778.56 1274.00,786.00
             1274.00,786.00 1219.00,786.00 1219.00,786.00
             1219.00,786.00 1211.32,784.98 1211.32,784.98
             1211.32,784.98 1197.00,763.00 1197.00,763.00
             1197.00,763.00 1171.77,721.00 1171.77,721.00
             1171.77,721.00 1166.98,711.00 1166.98,711.00
             1166.98,711.00 1154.00,690.00 1154.00,690.00
             1146.57,695.46 1141.80,706.05 1137.14,714.00
             1137.14,714.00 1108.18,763.00 1108.18,763.00
             1105.44,767.30 1097.18,782.98 1093.79,784.98
             1091.70,786.21 1088.38,786.00 1086.00,786.00
             1086.00,786.00 1032.00,786.00 1032.00,786.00
             1032.00,786.00 1055.50,749.00 1055.50,749.00
             1055.50,749.00 1074.50,718.00 1074.50,718.00
             1074.50,718.00 1098.42,682.96 1098.42,682.96
             1098.42,682.96 1115.86,656.00 1115.86,656.00
             1115.86,656.00 1121.77,645.00 1121.77,645.00
             1121.77,645.00 1115.68,634.00 1115.68,634.00
             1115.68,634.00 1098.17,607.00 1098.17,607.00
             1098.17,607.00 1065.71,558.00 1065.71,558.00
             1065.71,558.00 1056.58,542.00 1056.58,542.00
             1056.58,542.00 1038.00,512.00 1038.00,512.00 Z
           M 523.00,539.00
           C 523.00,539.00 524.00,539.00 524.00,539.00
             524.00,539.00 523.00,540.00 523.00,540.00
             523.00,540.00 523.00,539.00 523.00,539.00 Z
           M 913.00,560.00
           C 910.80,557.54 909.18,558.02 906.00,558.00
             906.00,558.00 880.00,558.00 880.00,558.00
             862.08,558.24 857.02,571.49 857.00,587.00
             857.00,587.00 857.00,616.00 857.00,616.00
             857.00,616.00 857.00,634.00 857.00,634.00
             857.04,635.95 856.90,638.63 858.60,639.98
             860.19,641.23 864.01,641.00 866.00,641.00
             866.00,641.00 896.00,641.00 896.00,641.00
             904.86,641.00 914.42,641.61 923.00,639.24
             934.94,635.94 945.16,624.48 949.17,613.00
             951.08,607.52 951.06,601.72 951.00,596.00
             950.82,581.12 942.36,566.43 928.00,561.09
             922.96,559.22 917.70,556.66 913.00,560.00 Z
           M 880.00,559.00
           C 880.00,559.00 881.00,559.00 881.00,559.00
             881.00,559.00 880.00,560.00 880.00,560.00
             880.00,560.00 880.00,559.00 880.00,559.00 Z
           M 380.00,564.00
           C 380.00,564.00 381.00,564.00 381.00,564.00
             381.00,564.00 380.00,565.00 380.00,565.00
             380.00,565.00 380.00,564.00 380.00,564.00 Z
           M 753.00,709.00
           C 753.00,728.50 751.63,742.80 741.45,760.00
             739.57,763.17 738.20,766.02 735.71,768.82
             724.49,781.45 705.98,786.84 690.00,789.59
             681.95,790.98 684.27,791.98 675.00,792.00
             675.00,792.00 669.00,792.00 669.00,792.00
             669.00,792.00 650.00,789.28 650.00,789.28
             636.41,787.51 622.23,784.51 611.00,776.10
             588.79,759.46 580.84,726.37 578.91,700.00
             578.91,700.00 578.00,690.00 578.00,690.00
             578.00,690.00 577.00,667.00 577.00,667.00
             577.00,667.00 578.04,657.00 578.04,657.00
             578.04,657.00 578.04,648.00 578.04,648.00
             579.90,629.79 584.65,607.58 596.76,593.28
             606.17,582.17 622.97,572.32 637.00,568.49
             642.85,566.89 649.00,566.48 655.00,565.84
             655.00,565.84 672.00,564.04 672.00,564.04
             672.00,564.04 686.00,565.72 686.00,565.72
             705.69,568.29 720.83,572.95 734.95,588.00
             739.68,593.05 744.72,604.33 747.00,611.00
             755.34,635.39 753.00,661.57 753.00,687.00
             753.00,687.00 655.00,687.00 655.00,687.00
             655.00,687.00 633.00,687.00 633.00,687.00
             630.86,687.04 628.23,686.96 626.60,688.60
             624.60,690.60 624.97,695.32 625.00,698.00
             625.10,706.36 629.23,726.18 633.97,732.83
             635.65,735.20 639.61,738.69 642.00,740.37
             651.97,747.37 663.49,747.02 675.00,747.00
             680.43,746.99 684.91,746.74 690.00,744.47
             703.17,738.61 711.36,722.91 712.00,709.00
             712.00,709.00 753.00,709.00 753.00,709.00 Z
           M 359.00,565.00
           C 359.00,565.00 360.00,565.00 360.00,565.00
             360.00,565.00 359.00,566.00 359.00,566.00
             359.00,566.00 359.00,565.00 359.00,565.00 Z
           M 294.00,791.00
           C 293.15,789.72 293.27,789.35 291.71,788.51
             291.71,788.51 270.00,783.66 270.00,783.66
             255.16,778.48 246.76,770.88 239.48,757.00
             226.65,732.53 226.00,705.88 226.00,679.00
             226.00,660.70 225.88,643.32 228.95,625.17
             231.98,607.19 240.10,587.45 257.00,578.40
             278.36,566.95 298.78,569.00 322.00,569.00
             322.00,569.00 350.00,569.00 350.00,569.00
             350.00,569.00 374.00,567.83 374.00,567.83
             374.00,567.83 381.00,566.85 381.00,566.85
             381.00,566.85 391.00,566.85 391.00,566.85
             391.00,566.85 400.00,566.00 400.00,566.00
             400.00,566.00 400.00,786.00 400.00,786.00
             400.00,786.00 376.00,786.00 376.00,786.00
             373.32,785.98 370.60,786.18 368.39,784.40
             366.42,782.82 359.60,770.27 357.53,767.00
             356.19,764.89 354.40,761.18 351.90,760.41
             348.95,759.51 339.97,765.31 337.00,766.92
             337.00,766.92 309.00,782.67 309.00,782.67
             303.37,785.86 299.36,786.90 294.00,791.00 Z
           M 661.00,603.29
           C 644.75,606.03 633.02,614.62 628.89,631.00
             627.39,636.98 625.76,642.77 626.02,649.00
             626.09,650.73 626.10,652.79 627.60,653.98
             629.19,655.23 633.01,655.00 635.00,655.00
             635.00,655.00 703.00,655.00 703.00,655.00
             705.30,655.00 709.26,655.41 711.05,653.43
             712.74,650.99 711.63,645.84 711.05,643.00
             710.21,634.25 709.25,626.83 704.52,619.00
             695.07,603.36 677.46,601.73 661.00,603.29 Z
           M 352.00,611.00
           C 352.00,611.00 319.00,611.00 319.00,611.00
             307.99,611.00 299.38,610.43 290.04,617.60
             282.20,623.62 279.17,632.82 276.87,642.00
             272.53,659.38 272.37,685.26 275.00,703.00
             276.42,712.54 279.38,723.18 287.01,729.53
             293.69,735.09 305.35,738.79 314.00,736.51
             314.00,736.51 335.00,726.24 335.00,726.24
             335.00,726.24 344.00,721.48 344.00,721.48
             351.65,717.79 351.98,717.56 352.00,709.00
             352.00,709.00 352.00,611.00 352.00,611.00 Z
           M 278.00,653.00
           C 278.00,653.00 279.00,653.00 279.00,653.00
             279.00,653.00 278.00,654.00 278.00,654.00
             278.00,654.00 278.00,653.00 278.00,653.00 Z
           M 971.00,667.00
           C 971.00,667.00 972.00,667.00 972.00,667.00
             972.00,667.00 971.00,668.00 971.00,668.00
             971.00,668.00 971.00,667.00 971.00,667.00 Z
           M 675.00,745.00
           C 675.00,745.00 676.00,745.00 676.00,745.00
             676.00,745.00 675.00,746.00 675.00,746.00
             675.00,746.00 675.00,745.00 675.00,745.00 Z" />
</svg>
